<?xml version="1.0" encoding="UTF-8" standalone="no"?>
<!-- Created with Inkscape (http://www.inkscape.org/) -->

<svg
   xmlns:dc="http://purl.org/dc/elements/1.1/"
   xmlns:cc="http://creativecommons.org/ns#"
   xmlns:rdf="http://www.w3.org/1999/02/22-rdf-syntax-ns#"
   xmlns:svg="http://www.w3.org/2000/svg"
   xmlns="http://www.w3.org/2000/svg"
   xmlns:sodipodi="http://sodipodi.sourceforge.net/DTD/sodipodi-0.dtd"
   xmlns:inkscape="http://www.inkscape.org/namespaces/inkscape"
   width="48"
   height="48"
   viewBox="0 0 48 48"
   version="1.1"
   id="SVGRoot"
   inkscape:version="0.92.5 (2060ec1f9f, 2020-04-08)"
   sodipodi:docname="icon_trn.svg">
  <defs
     id="defs10366" />
  <sodipodi:namedview
     id="base"
     pagecolor="#ffffff"
     bordercolor="#666666"
     borderopacity="1.0"
     inkscape:pageopacity="0.0"
     inkscape:pageshadow="2"
     inkscape:zoom="5.6568543"
     inkscape:cx="-0.669173"
     inkscape:cy="4.5286753"
     inkscape:document-units="px"
     inkscape:current-layer="layer1"
     showgrid="false"
     inkscape:window-width="1294"
     inkscape:window-height="711"
     inkscape:window-x="72"
     inkscape:window-y="27"
     inkscape:window-maximized="1"
     inkscape:grid-bbox="true" />
  <metadata
     id="metadata10369">
    <rdf:RDF>
      <cc:Work
         rdf:about="">
        <dc:format>image/svg+xml</dc:format>
        <dc:type
           rdf:resource="http://purl.org/dc/dcmitype/StillImage" />
        <dc:title></dc:title>
      </cc:Work>
    </rdf:RDF>
  </metadata>
  <g
     inkscape:label="Layer 1"
     inkscape:groupmode="layer"
     id="layer1"
     transform="translate(0,32)">
    <g
       id="g830"
       transform="matrix(2.9600504,0,0,2.998464,0.12250315,-32.100327)">
      <rect
         ry="3.0495253"
         rx="3.0804925"
         y="-0.125"
         x="-0.0625"
         height="16.1875"
         width="16.25"
         id="rect11003"
         style="opacity:1;fill:#023047;fill-opacity:1;fill-rule:nonzero;stroke:none;stroke-width:4.86563969;stroke-linecap:round;stroke-linejoin:round;stroke-miterlimit:4;stroke-dasharray:none;stroke-dashoffset:0;stroke-opacity:1;paint-order:fill markers stroke" />
      <path
         transform="matrix(0.84413507,0,0,0.86576942,1.6930076,2.1985929)"
         d="m 13,14.1875 -2.92241,-3.492912 1.70407,4.223394 -2.3400188,-3.907074 1.0224048,4.437973 -1.7000074,-4.225031 0.3155657,4.543273 -1.0181374,-4.438954 -0.399044,4.536704 -0.3111969,-4.543575 -1.1038279,4.418425 0.403406,-4.536318 -1.7814318,4.19135 1.1080758,-4.417361 -2.415171,3.86107 L 5.3477382,10.648829 2.3582975,14.084547 4.77718,10.225801 1.2870795,13.151568 4.2798225,9.7187258 0.37500011,12.0625 3.8679123,9.14009 -0.35548232,10.84416 3.5515919,8.5041412 -0.88638088,9.5265463 3.3386503,7.8265386 -1.2046231,8.1421043 3.2343307,7.1239669 -1.3023727,6.7249229 3.241202,6.413726 -1.1772229,5.3098981 3.3590948,5.7133041 -0.83225529,3.9318723 3.5851062,5.0399481 -0.27596402,2.6247771 3.9136712,4.4102382 0.47795311,1.4207975 4.3366993,3.83968 1.4109322,0.34957952 4.8437742,3.3423225 2.5000001,-0.56249989 5.42241,2.9304123 3.7183405,-1.2929823 6.0583588,2.6140919 5.0359537,-1.8238809 6.7359614,2.4011503 6.4203957,-2.1421231 7.4385331,2.2968307 7.8375771,-2.2398727 8.148774,2.303702 9.2526019,-2.1147229 8.8491959,2.4215948 10.630628,-1.7697553 9.5225519,2.6476062 11.937723,-1.213464 10.152262,2.9761712 13.141703,-0.45954689 10.72282,3.3991993 14.21292,0.47343217 11.220178,3.9062742 15.125,1.5625001 11.632088,4.48491 15.855482,2.7808405 11.948408,5.1208588 16.386381,4.0984537 12.16135,5.7984614 l 4.543273,-0.3155657 -4.438954,1.0181374 4.536704,0.399044 -4.543575,0.3111969 4.418425,1.1038279 -4.536318,-0.403406 4.19135,1.7814318 -4.417361,-1.1080758 3.86107,2.4151711 -4.189635,-1.7854612 3.435718,2.9894412 -3.858746,-2.418883 2.925767,3.4901 -3.432842,-2.992742 z"
         inkscape:randomized="0"
         inkscape:rounded="0"
         inkscape:flatsided="false"
         sodipodi:arg2="1.0306918"
         sodipodi:arg1="0.95215198"
         sodipodi:r2="4.5263982"
         sodipodi:r1="9.0527964"
         sodipodi:cy="6.8125"
         sodipodi:cx="7.75"
         sodipodi:sides="40"
         id="path10995"
         style="opacity:1;fill:#ffb703;fill-opacity:1;fill-rule:nonzero;stroke:none;stroke-width:6;stroke-linecap:round;stroke-linejoin:round;stroke-miterlimit:4;stroke-dasharray:none;stroke-dashoffset:0;stroke-opacity:1;paint-order:fill markers stroke"
         sodipodi:type="star" />
      <g
         style="fill:#000001;fill-opacity:1"
         id="g9232"
         transform="matrix(0.22098602,0,0,0.23696932,-20.981359,-38.531133)">
        <path
           sodipodi:nodetypes="csscscccscsscccccccssscscsccccc"
           inkscape:connector-curvature="0"
           id="path1398"
           style="font-style:normal;font-variant:normal;font-weight:bold;font-stretch:normal;font-size:19.75555611px;line-height:1.25;font-family:Purisa;-inkscape-font-specification:'Purisa Bold';letter-spacing:0px;word-spacing:0px;fill:#000001;fill-opacity:1;stroke:none;stroke-width:0.50954193"
           d="m 127.00024,184.56599 c 1.57332,1.37017 0.55127,-2.81017 1.49642,-2.4399 0.94516,0.37028 3.80024,3.8053 3.80024,4.31443 0,0.39342 -3.18967,3.85118 -3.55105,3.87433 -0.33359,0.0232 -0.70052,-2.37488 -1.00631,-2.37488 -1.80691,0 -4.45043,0.43294 -6.70212,0.82636 l -2.83547,0.5207 0.54207,2.39523 c 0.33359,1.73567 0.72277,5.07973 1.16755,10.03218 0.44478,4.95246 0.70886,7.68325 0.79226,8.19238 0.0834,0.41656 0.1251,0.82155 0.1251,1.21496 0,1.11084 -0.56987,1.66625 -1.70962,1.66625 -0.52818,0 -0.95905,-0.15042 -1.29264,-0.45127 -0.30578,-0.30085 -0.59767,-0.90255 -0.87566,-1.8051 -0.25019,-0.90255 -0.45868,-2.01338 -0.62547,-3.33249 -0.139,-1.34226 -0.30579,-3.20521 -0.50038,-5.58887 -0.19459,-2.36051 -0.43088,-4.45489 -0.70886,-6.28313 -0.25019,-1.82824 -0.50038,-3.17049 -0.75057,-4.02676 -0.22239,-0.85626 -0.43088,-1.34225 -0.62547,-1.45796 -0.16679,-0.0926 -0.41698,-0.13885 -0.75057,-0.13885 -0.22238,0 -1.20924,0.11571 -2.96056,0.34713 -1.75132,0.23142 -3.14125,0.34714 -4.1698,0.34714 -0.63937,0 -1.55673,0.0926 -2.75207,0.2777 -1.19535,0.162 -2.02931,0.243 -2.50189,0.243 -0.778364,0 -1.431634,-0.13886 -1.959814,-0.41656 -0.52817,-0.30085 -0.79226,-0.67113 -0.79226,-1.11083 0,-0.53228 0.40308,-0.91412 1.20924,-1.14555 0.66717,-0.18514 3.488744,-0.57856 8.464714,-1.18025 4.44779,-0.53228 8.85389,-1.12241 13.21828,-1.77039 3.41925,-0.48599 5.50414,-0.729 6.25471,-0.729 z" />
        <path
           inkscape:connector-curvature="0"
           id="path1400"
           style="font-style:normal;font-variant:normal;font-weight:bold;font-stretch:normal;font-size:19.75555611px;line-height:1.25;font-family:Purisa;-inkscape-font-specification:'Purisa Bold';letter-spacing:0px;word-spacing:0px;fill:#000001;fill-opacity:1;stroke:none;stroke-width:0.26458332"
           d="m 124.83869,198.06334 q 0.0395,-0.51365 0.96802,-1.56069 0.94827,-1.04705 1.30387,-1.04705 0.84949,0 3.59551,0.33585 2.76578,0.31609 3.29918,0.47413 1.50142,0.45438 1.50142,1.97556 0,0.90875 -0.47413,1.77799 -0.47413,0.86925 -1.04705,1.50143 -0.57291,0.63217 -0.61242,0.7112 0,0.11853 -0.29633,0.3556 -0.29633,0.23706 -0.73096,0.51364 -0.41486,0.25682 -0.94826,0.55316 -0.51365,0.27657 -0.94827,0.49388 -0.41487,0.21732 -0.75071,0.39512 -0.31609,0.15804 -0.33585,0.15804 3.25967,1.00753 4.20794,1.6002 0.80998,0.51364 0.98778,0.59267 0.45437,0.079 1.10631,0.77046 0.67169,0.69145 0.67169,1.0668 0,0.75071 -0.61243,0.75071 -0.37535,0 -1.14582,-0.37535 -0.77047,-0.37536 -2.05458,-1.02729 -1.26435,-0.65193 -2.44969,-1.08656 l -1.28411,-0.47413 0.0593,1.93605 q 0.0395,0.84948 0.0395,1.40264 0,0.37536 -0.0395,0.59267 -0.0395,0.21731 -0.23706,0.41486 -0.19756,0.21731 -0.57291,0.21731 -0.57292,0 -0.79023,-0.69144 -0.21731,-0.69144 -0.21731,-1.97556 0,-2.39042 -0.65193,-2.667 -0.75071,-0.33584 -0.75071,-0.94826 0,-0.57291 0.73095,-0.92851 l 0.47413,-0.21731 -0.13829,-2.07434 q -0.1778,-2.54846 -0.3556,-2.92382 -0.29633,0.23707 -0.65193,0.23707 -0.3556,0 -0.61242,-0.23707 -0.23707,-0.23706 -0.23707,-0.59266 z m 8.98878,0.41486 q -0.41487,-0.19755 -1.75824,-0.47413 -1.32363,-0.29633 -2.50896,-0.29633 h -1.22484 l 0.11853,0.77046 q 0.19755,1.46191 0.41487,4.6228 0.59266,-0.19756 1.58044,-0.7112 1.00753,-0.51364 1.50142,-0.90876 0.51365,-0.41486 1.16558,-1.48166 0.65193,-1.08656 0.7112,-1.52118 z" />
        <path
           sodipodi:nodetypes="ccssscsccccsccccccccccssccccccccsccccccccccc"
           inkscape:connector-curvature="0"
           id="path1406"
           style="font-style:normal;font-variant:normal;font-weight:bold;font-stretch:normal;font-size:19.75555611px;line-height:1.25;font-family:Purisa;-inkscape-font-specification:'Purisa Bold';letter-spacing:0px;word-spacing:0px;fill:#000001;fill-opacity:1;stroke:none;stroke-width:0.48893881"
           d="m 142.4853,199.63539 c 0,1.40505 0.0405,2.63446 0.12139,3.68825 0.0809,1.05379 0.12137,1.74167 0.12137,2.06367 0,1.7563 -0.16189,3.32235 -0.48567,4.69812 -0.32378,1.37578 -0.7285,2.06366 -1.21417,2.06366 -0.84992,0 -1.3963,-0.43907 -1.63914,-1.31723 -0.24283,-0.87815 -0.36425,-2.82473 -0.36425,-5.83973 0,-3.39553 0.0607,-8.1522 0.18213,-14.27001 0.14165,-6.14708 0.2833,-9.55725 0.42495,-10.2305 0.0203,-0.11709 0.0608,-0.24882 0.12138,-0.39517 0,0 0.23281,-0.39517 0.51602,-0.65862 0.28332,-0.29272 0.61722,-0.43908 1.0017,-0.43908 0.40472,0 0.81956,0.19027 1.24452,0.5708 0.36425,0.38054 1.20406,1.8295 2.51942,4.34687 1.3356,2.48811 2.0034,3.93706 2.0034,4.34687 0.0405,0.14636 0.27318,0.65862 0.69815,1.53677 0.42495,0.87815 1.08263,2.34174 1.97303,4.39077 0.91063,2.01976 1.85162,4.30296 2.82295,6.84961 1.98316,5.21038 3.30864,8.00584 3.97643,8.38637 0.30355,-0.70252 0.6071,-4.18587 0.91064,-10.45004 0.36426,-7.75703 0.65769,-12.36734 0.88028,-13.83093 0.24283,-1.69777 0.67791,-2.67837 1.30523,-2.94182 0.18213,-0.0878 0.39462,-0.13174 0.63745,-0.13174 0.91063,0 1.36595,1.00988 1.36595,3.02964 0,0.67325 -0.0506,1.69776 -0.15181,3.07354 -0.1012,1.3465 -0.26309,3.45407 -0.48567,6.32271 -0.20237,2.83937 -0.39461,5.869 -0.57674,9.0889 -0.0809,1.60995 -0.15175,2.83937 -0.21247,3.68825 -0.0607,0.81961 -0.14168,1.72704 -0.24284,2.72228 -0.10121,0.96597 -0.20238,1.6685 -0.30353,2.10757 -0.10121,0.43908 -0.24286,0.87816 -0.42497,1.31723 -0.18213,0.40981 -0.39461,0.67326 -0.63745,0.79034 -0.2226,0.14637 -0.50591,0.21955 -0.84992,0.21955 -1.51772,0 -2.86343,-0.76107 -4.03713,-2.28321 -1.15347,-1.5514 -2.32718,-3.95169 -3.52111,-7.20086 -0.56661,-1.52214 -1.07252,-2.82473 -1.51773,-3.90779 -0.44519,-1.11233 -0.74873,-1.82949 -0.91062,-2.15148 -0.1619,-0.32199 -0.30356,-0.65862 -0.42497,-1.00988 -0.1012,-0.38053 -0.20238,-0.84888 -0.30355,-1.40505 -0.1012,-0.52689 -0.37439,-1.30259 -0.81957,-2.32711 -0.4452,-1.02451 -1.05229,-2.29783 -1.82126,-3.81997 -0.74874,-1.52213 -1.18382,-2.41492 -1.30523,-2.67837 -0.38449,2.72228 -0.57673,6.71788 -0.57673,11.98681 z" />
        <path
           sodipodi:nodetypes="ccccc"
           style="fill:#000001;fill-opacity:1;stroke:#000000;stroke-width:0.26458332px;stroke-linecap:butt;stroke-linejoin:miter;stroke-opacity:1"
           d="m 146.11593,179.56955 c 0.80557,1.38365 9.86205,1.20634 10.53609,0.28348 -0.0675,-0.96804 -0.289,-4.00894 -0.44885,-5.05543 -0.84493,0.68124 -2.0051,1.98148 -2.66945,2.64584 -0.57738,-0.65222 -1.73092,-2.07401 -2.12612,-2.64584"
           id="path1455"
           inkscape:connector-curvature="0" />
        <path
           style="fill:#000001;fill-opacity:1;stroke:#000000;stroke-width:0.26458332px;stroke-linecap:butt;stroke-linejoin:miter;stroke-opacity:1"
           d="m 149.65946,177.62652 c 0,0 -2.41255,-2.38302 -2.95294,-3.0179 -0.17897,0.67147 -0.57765,3.89141 -0.59059,4.96093"
           id="path1459"
           inkscape:connector-curvature="0"
           sodipodi:nodetypes="ccc" />
      </g>
      <rect
         ry="0.1875"
         rx="50"
         y="15.8125"
         x="21.25"
         height="0.1875"
         width="0.0625"
         id="rect11005"
         style="opacity:1;fill:#023047;fill-opacity:1;fill-rule:nonzero;stroke:none;stroke-width:6;stroke-linecap:round;stroke-linejoin:round;stroke-miterlimit:4;stroke-dasharray:none;stroke-dashoffset:0;stroke-opacity:1;paint-order:fill markers stroke" />
    </g>
  </g>
</svg>
